<svg width="982" height="558" viewBox="0 0 982 558" fill="none" xmlns="http://www.w3.org/2000/svg">
<path d="M374.527 76.0417C376.495 88.7126 383.149 99.3875 394.489 108.066C406.137 116.98 418.18 120.614 430.618 118.967C443.632 117.203 454.585 110.512 463.477 98.8939C472.368 87.2756 475.83 75.1311 473.862 62.4601C472.471 49.6716 465.951 38.8206 454.304 29.9071C442.963 21.2282 430.786 17.7707 417.771 19.5346C405.026 20.9464 394.208 27.4614 385.317 39.0797C376.426 50.698 372.829 63.0186 374.527 76.0417Z" fill="#FFFBF4"/>
<path d="M246.053 147.734V229.751H82.0176V311.768H246.053V393.786H82.0176V557.82H0L27.3392 344.476L0 147.734H246.053Z" fill="#FFFBF4"/>
<path d="M273.392 147.734H355.41L328.07 344.476L355.41 557.82H273.392V344.575V147.734Z" fill="#FFFBF4"/>
<path d="M382.749 147.634H464.766L437.427 344.575L464.766 557.72H382.749L355.41 344.575L382.749 147.634Z" fill="url(#paint0_linear_98_7)"/>
<path d="M492.105 147.634H574.123V191.377C574.123 191.377 579.169 179.668 582.435 174.536C602.965 143.741 628.16 119.712 658.022 102.448C688.35 85.1846 721.944 76.5527 758.805 76.5527C797.532 76.5527 831.826 85.4179 861.688 103.148C891.549 120.412 914.879 144.674 931.676 175.936C948.473 206.73 956.872 242.891 956.872 284.417C956.872 325.477 948.473 361.637 931.676 392.899C914.879 424.16 891.549 448.656 861.688 466.386C831.826 483.65 797.532 492.282 758.805 492.282C721.944 492.282 688.584 483.65 658.722 466.386C628.86 449.122 603.665 424.86 583.135 393.599C579.402 388.466 576.922 382.415 574.123 377.283V557.72H492.105L464.766 344.476L492.105 147.634ZM864.487 284.417C864.487 257.822 858.888 234.492 847.69 214.429C836.958 193.899 822.028 178.035 802.897 166.837C783.767 155.173 761.838 149.34 737.108 149.34C712.379 149.34 689.05 155.173 667.121 166.837C645.658 178.035 626.761 193.899 610.43 214.429C594.1 234.492 580.802 257.822 570.537 284.417C580.802 311.013 594.1 334.575 610.43 355.105C626.761 375.168 645.658 391.032 667.121 402.697C689.05 413.895 712.379 419.494 737.108 419.494C761.838 419.494 783.767 413.895 802.897 402.697C822.028 391.032 836.958 375.168 847.69 355.105C858.888 334.575 864.487 311.013 864.487 284.417Z" fill="#FFFBF4"/>
<path d="M837.97 498.378C955.143 464.219 989.201 335.325 977.353 256.173" stroke="url(#paint1_linear_98_7)" stroke-width="2" stroke-linecap="round"/>
<defs>
<linearGradient id="paint0_linear_98_7" x1="478.436" y1="557.82" x2="478.436" y2="76.5527" gradientUnits="userSpaceOnUse">
<stop stop-color="#B31414"/>
<stop offset="1" stop-color="#F25B02"/>
</linearGradient>
<linearGradient id="paint1_linear_98_7" x1="907.213" y1="256.981" x2="909.985" y2="497.549" gradientUnits="userSpaceOnUse">
<stop stop-color="#B31414"/>
<stop offset="1" stop-color="#F25B02"/>
</linearGradient>
</defs>
</svg>
